<svg width="512" height="512" viewBox="0 0 512 512" xmlns="http://www.w3.org/2000/svg">
  <defs>
    <linearGradient id="g" x1="0" y1="0" x2="1" y2="1">
      <stop offset="0%" stop-color="#010508"/>
      <stop offset="100%" stop-color="#0a2840"/>
    </linearGradient>
    <pattern id="grid" x="0" y="0" width="20" height="20" patternUnits="userSpaceOnUse">
      <path d="M 20 0 L 0 0 0 20" fill="none" stroke="#ffffff" stroke-width="0.4" opacity="0.1"/>
    </pattern>
    <clipPath id="clip">
      <rect x="0" y="0" width="512" height="512" rx="80"/>
    </clipPath>
  </defs>

  <!-- Background -->
  <rect x="0" y="0" width="512" height="512" rx="80" fill="url(#g)"/>
  <rect x="0" y="0" width="512" height="512" fill="url(#grid)" clip-path="url(#clip)"/>

  <!-- Teal border — 36px inset so OS corner rounding can't clip it -->
  <rect x="36" y="36" width="440" height="440" rx="18" fill="none" stroke="#3dd9cc" stroke-width="9"/>

  <!-- AIR (teal A, white IR) -->
  <path d="M 144.66,248.00 L 144.66,170.39 L 158.05,157.00 L 200.04,157.00 L 213.43,170.39 L 213.43,248.00 L 195.09,248.00 L 195.09,221.22 L 162.99,221.22 L 162.99,248.00 Z M 152.13,240.20 L 156.09,240.20 L 156.09,214.20 L 202.25,214.20 L 202.25,240.20 L 206.28,240.20 L 206.28,173.57 L 196.40,163.76 L 161.94,163.76 L 152.13,173.57 Z M 162.99,202.89 L 195.09,202.89 L 195.09,179.36 L 191.13,175.39 L 166.95,175.39 L 162.99,179.36 Z M 156.09,210.24 L 156.09,175.26 L 163.77,167.72 L 194.64,167.72 L 202.25,175.26 L 202.25,210.24 Z" fill="#3dd9cc" fill-rule="nonzero"/>
  <path d="M 228.38,248.00 L 228.38,229.60 L 246.19,229.60 L 246.19,175.39 L 228.38,175.39 L 228.38,157.00 L 282.26,157.00 L 282.26,175.39 L 264.51,175.39 L 264.51,229.60 L 282.26,229.60 L 282.26,248.00 Z M 235.53,240.85 L 275.18,240.85 L 275.18,236.88 L 256.78,236.88 L 256.78,167.99 L 275.18,167.99 L 275.18,164.02 L 235.53,164.02 L 235.53,167.99 L 252.81,167.99 L 252.81,236.88 L 235.53,236.88 Z" fill="#ffffff" fill-rule="nonzero"/>
  <path d="M 297.86,248.00 L 297.86,157.00 L 353.96,157.00 L 367.35,170.39 L 367.35,198.60 L 359.42,205.88 L 367.35,214.53 L 367.35,248.00 L 348.95,248.00 L 348.95,221.03 L 342.45,214.53 L 316.25,214.53 L 316.25,248.00 Z M 305.07,240.98 L 309.11,240.98 L 309.11,206.92 L 345.50,206.92 L 356.36,218.56 L 356.36,240.98 L 360.33,240.98 L 360.33,217.32 L 349.08,205.03 L 359.94,195.81 L 359.94,173.90 L 350.06,164.08 L 305.07,164.08 Z M 316.25,196.13 L 344.99,196.13 L 348.95,192.10 L 348.95,179.36 L 344.99,175.39 L 316.25,175.39 Z M 309.11,202.89 L 309.11,168.05 L 348.24,168.05 L 355.91,175.59 L 355.91,194.50 L 345.90,202.89 Z" fill="#ffffff" fill-rule="nonzero"/>

  <!-- Divider -->
  <line x1="68" y1="272" x2="444" y2="272" stroke="#3dd9cc" stroke-width="1.5"/>

  <!-- BORNE (teal B, white ORNE) -->
  <path d="M 103.05,360.00 L 103.05,291.40 L 141.36,291.40 L 151.46,301.49 L 151.46,318.99 L 147.10,323.35 L 153.66,329.96 L 153.66,349.91 L 143.57,360.00 Z M 108.73,354.71 L 140.68,354.71 L 148.27,347.11 L 148.27,331.97 L 140.29,323.99 L 138.82,323.99 L 145.92,316.88 L 145.92,303.94 L 138.52,296.50 L 108.73,296.50 Z M 111.77,351.72 L 111.77,326.34 L 138.38,326.34 L 145.24,333.15 L 145.24,345.84 L 139.31,351.72 Z M 111.77,323.35 L 111.77,299.53 L 137.15,299.53 L 142.93,305.22 L 142.93,315.80 L 135.29,323.35 Z M 116.91,346.13 L 136.81,346.13 L 139.80,343.14 L 139.80,336.24 L 135.48,331.92 L 116.91,331.92 Z M 116.91,318.06 L 132.74,318.06 L 137.64,313.20 L 137.64,308.26 L 134.65,305.27 L 116.91,305.27 Z" fill="#3dd9cc" fill-rule="nonzero"/>
  <path d="M 175.03,360.00 L 164.93,349.91 L 164.93,301.49 L 175.03,291.40 L 207.56,291.40 L 217.66,301.49 L 217.66,349.91 L 207.56,360.00 Z M 181.79,346.13 L 200.80,346.13 L 203.79,343.14 L 203.79,308.26 L 200.80,305.27 L 181.79,305.27 L 178.80,308.26 L 178.80,343.14 Z M 177.92,354.37 L 204.77,354.37 L 212.22,346.97 L 212.22,304.09 L 204.77,296.69 L 177.92,296.69 L 170.47,304.09 L 170.47,346.97 Z M 179.24,351.38 L 173.46,345.69 L 173.46,305.37 L 179.24,299.68 L 203.45,299.68 L 209.18,305.37 L 209.18,345.69 L 203.45,351.38 Z" fill="#ffffff" fill-rule="nonzero"/>
  <path d="M 229.42,360.00 L 229.42,291.40 L 271.70,291.40 L 281.80,301.49 L 281.80,322.76 L 275.82,328.25 L 281.80,334.76 L 281.80,360.00 L 267.93,360.00 L 267.93,339.67 L 263.03,334.76 L 243.28,334.76 L 243.28,360.00 Z M 234.86,354.71 L 237.89,354.71 L 237.89,329.03 L 265.33,329.03 L 273.52,337.80 L 273.52,354.71 L 276.51,354.71 L 276.51,336.87 L 268.03,327.61 L 276.21,320.65 L 276.21,304.14 L 268.76,296.74 L 234.86,296.74 Z M 243.28,320.90 L 264.94,320.90 L 267.93,317.86 L 267.93,308.26 L 264.94,305.27 L 243.28,305.27 Z M 237.89,325.99 L 237.89,299.73 L 267.39,299.73 L 273.17,305.41 L 273.17,319.67 L 265.63,325.99 Z" fill="#ffffff" fill-rule="nonzero"/>
  <path d="M 298.95,354.81 L 301.94,354.81 L 301.94,300.07 L 313.26,300.07 L 331.14,354.61 L 347.75,354.61 L 347.75,296.69 L 344.76,296.69 L 344.76,351.47 L 333.44,351.47 L 315.61,296.89 L 298.95,296.89 Z M 293.56,360.00 L 293.56,291.40 L 320.17,291.40 L 337.12,345.94 L 339.23,345.94 L 339.23,291.40 L 353.09,291.40 L 353.09,360.00 L 326.49,360.00 L 309.43,305.32 L 307.43,305.32 L 307.43,360.00 Z" fill="#ffffff" fill-rule="nonzero"/>
  <path d="M 364.85,360.00 L 364.85,291.40 L 409.44,291.40 L 409.44,305.27 L 378.72,305.27 L 378.72,318.45 L 406.06,318.45 L 406.06,332.31 L 378.72,332.31 L 378.72,346.13 L 409.44,346.13 L 409.44,360.00 Z M 370.44,354.37 L 404.74,354.37 L 404.74,351.38 L 373.43,351.38 L 373.43,326.88 L 401.31,326.88 L 401.31,323.84 L 373.43,323.84 L 373.43,299.68 L 404.74,299.68 L 404.74,296.69 L 370.44,296.69 Z" fill="#ffffff" fill-rule="nonzero"/>
</svg>