<svg width="100%" viewBox="0 0 680 320" xmlns="http://www.w3.org/2000/svg">
  <defs>
    <linearGradient id="navyBg" x1="0" y1="0" x2="1" y2="1">
      <stop offset="0%" stop-color="#081420"/>
      <stop offset="100%" stop-color="#0A1C30"/>
    </linearGradient>
    <pattern id="squareGrid" x="0" y="0" width="20" height="20" patternUnits="userSpaceOnUse">
      <path d="M 20 0 L 0 0 0 20" fill="none" stroke="#ffffff" stroke-width="0.3" opacity="0.12"/>
    </pattern>
    <clipPath id="logoClip">
      <rect x="80" y="30" width="520" height="240" rx="4"/>
    </clipPath>
  </defs>

  <!-- Background -->
  <rect x="80" y="30" width="520" height="240" rx="4" fill="url(#navyBg)"/>
  <rect x="80" y="30" width="520" height="240" rx="4" fill="url(#squareGrid)" clip-path="url(#logoClip)"/>

  <!-- Panel rules -->
  <line x1="80" y1="78"  x2="600" y2="78"  stroke="#162535" stroke-width="0.8"/>
  <line x1="80" y1="252" x2="600" y2="252" stroke="#162535" stroke-width="0.8"/>

  <!-- Engineering corner marks -->
  <line x1="80"  y1="40"  x2="80"  y2="58"  stroke="#3dd9cc" stroke-width="1.2"/>
  <line x1="80"  y1="40"  x2="98"  y2="40"  stroke="#3dd9cc" stroke-width="1.2"/>
  <line x1="600" y1="40"  x2="600" y2="58"  stroke="#3dd9cc" stroke-width="1.2"/>
  <line x1="600" y1="40"  x2="582" y2="40"  stroke="#3dd9cc" stroke-width="1.2"/>
  <line x1="80"  y1="260" x2="80"  y2="242" stroke="#3dd9cc" stroke-width="1.2"/>
  <line x1="80"  y1="260" x2="98"  y2="260" stroke="#3dd9cc" stroke-width="1.2"/>
  <line x1="600" y1="260" x2="600" y2="242" stroke="#3dd9cc" stroke-width="1.2"/>
  <line x1="600" y1="260" x2="582" y2="260" stroke="#3dd9cc" stroke-width="1.2"/>

  <!-- Outlined C (paths) -->
  <path fill="none" stroke="#3dd9cc" stroke-width="2" d="M131.20600000000002 204 L120.08200000000001 192.876 L120.08200000000001 139.524 L131.20600000000002 128.4 L164.74 128.4 L175.918 139.524 L175.918 156.912 L160.636 156.912 L160.636 146.976 L157.342 143.68200000000002 L138.65800000000002 143.68200000000002 L135.364 146.976 L135.364 185.424 L138.65800000000002 188.718 L157.342 188.718 L160.636 185.424 L160.636 175.488 L175.918 175.488 L175.918 192.876 L164.74 204 Z M134.662 197.088 L161.284 197.088 L169.06 189.312 L169.06 181.536 L167.548 181.536 L167.548 188.88 L160.744 195.576 L135.202 195.576 L128.398 188.88 L128.398 143.304 L135.202 136.608 L160.744 136.608 L167.548 143.304 L167.548 150.648 L169.06 150.648 L169.06 142.872 L161.284 135.096 L134.662 135.096 L126.88600000000001 142.872 L126.88600000000001 189.312 Z"/>

  <!-- CLAUDEBORNE wordmark (paths) -->
  <path fill="#ffffff" d="M208.1155 155 L204.2015 151.086 L204.2015 132.314 L208.1155 128.4 L219.9145 128.4 L223.8475 132.314 L223.8475 138.43200000000002 L218.47050000000002 138.43200000000002 L218.47050000000002 134.936 L217.3115 133.777 L210.7375 133.777 L209.57850000000002 134.936 L209.57850000000002 148.464 L210.7375 149.623 L217.3115 149.623 L218.47050000000002 148.464 L218.47050000000002 144.968 L223.8475 144.968 L223.8475 151.086 L219.9145 155 Z M209.3315 152.568 L218.6985 152.568 L221.4345 149.832 L221.4345 147.096 L220.9025 147.096 L220.9025 149.68 L218.5085 152.036 L209.5215 152.036 L207.1275 149.68 L207.1275 133.644 L209.5215 131.288 L218.5085 131.288 L220.9025 133.644 L220.9025 136.228 L221.4345 136.228 L221.4345 133.492 L218.6985 130.756 L209.3315 130.756 L206.59550000000002 133.492 L206.59550000000002 149.832 Z M236.2175 155 L236.2175 128.4 L241.5945 128.4 L241.5945 149.623 L253.1465 149.623 L253.1465 155 Z M238.6495 152.625 L250.7525 152.625 L250.7525 152.093 L239.1815 152.093 L239.1815 130.756 L238.6495 130.756 Z M264.7565 155 L264.7565 132.314 L268.6705 128.4 L280.9445 128.4 L284.8585 132.314 L284.8585 155 L279.5005 155 L279.5005 147.172 L270.1145 147.172 L270.1145 155 Z M267.2645 152.378 L267.79650000000004 152.378 L267.79650000000004 144.816 L281.9135 144.816 L281.9135 152.378 L282.44550000000004 152.378 L282.44550000000004 133.397 L279.7095 130.661 L270.0005 130.661 L267.2645 133.397 Z M270.1145 141.814 L279.5005 141.814 L279.5005 134.936 L278.3415 133.777 L271.2735 133.777 L270.1145 134.936 Z M267.79650000000004 144.284 L267.79650000000004 133.549 L270.19050000000004 131.193 L279.5195 131.193 L281.9135 133.549 L281.9135 144.284 Z M301.1425 155 L297.2285 151.086 L297.2285 128.4 L302.6055 128.4 L302.6055 148.464 L303.7645 149.623 L311.5545 149.623 L312.7135 148.464 L312.7135 128.4 L318.0905 128.4 L318.0905 151.086 L314.1765 155 Z M302.4155 152.587 L312.9415 152.587 L315.6775 149.908 L315.6775 130.756 L315.14549999999997 130.756 L315.14549999999997 149.756 L312.75149999999996 152.055 L302.6055 152.055 L300.1735 149.756 L300.1735 130.756 L299.6415 130.756 L299.6415 149.908 Z M330.65049999999997 155 L330.65049999999997 128.4 L346.47749999999996 128.4 L350.39149999999995 132.314 L350.39149999999995 151.086 L346.47749999999996 155 Z M336.0275 149.623 L343.87449999999995 149.623 L345.03349999999995 148.464 L345.03349999999995 134.936 L343.87449999999995 133.777 L336.0275 133.777 Z M333.1015 152.587 L345.1855 152.587 L347.9215 149.851 L347.9215 133.587 L345.1855 130.851 L333.1015 130.851 Z M333.63349999999997 152.055 L333.63349999999997 131.383 L344.9955 131.383 L347.38949999999994 133.739 L347.38949999999994 149.699 L344.9955 152.055 Z M362.95149999999995 155 L362.95149999999995 128.4 L380.2415 128.4 L380.2415 133.777 L368.32849999999996 133.777 L368.32849999999996 138.888 L378.93049999999994 138.888 L378.93049999999994 144.265 L368.32849999999996 144.265 L368.32849999999996 149.623 L380.2415 149.623 L380.2415 155 Z M365.44049999999993 152.492 L378.15149999999994 152.492 L378.15149999999994 151.96 L365.97249999999997 151.96 L365.97249999999997 141.833 L376.82149999999996 141.833 L376.82149999999996 141.301 L365.97249999999997 141.301 L365.97249999999997 131.288 L378.15149999999994 131.288 L378.15149999999994 130.756 L365.44049999999993 130.756 Z M392.8015 155 L392.8015 128.4 L407.6595 128.4 L411.57349999999997 132.314 L411.57349999999997 139.097 L409.8825 140.788 L412.4285 143.353 L412.4285 151.086 L408.5145 155 Z M395.34749999999997 152.644 L407.20349999999996 152.644 L410.0155 149.832 L410.0155 144.246 L406.8615 141.092 L406.17749999999995 141.092 L409.1035 138.166 L409.1035 133.416 L406.36749999999995 130.68 L395.34749999999997 130.68 Z M395.87949999999995 152.112 L395.87949999999995 141.624 L406.6715 141.624 L409.4835 144.398 L409.4835 149.68 L407.01349999999996 152.112 Z M395.87949999999995 141.092 L395.87949999999995 131.212 L406.17749999999995 131.212 L408.57149999999996 133.568 L408.57149999999996 138.014 L405.4555 141.092 Z M398.1785 149.623 L405.8925 149.623 L407.0515 148.464 L407.0515 145.785 L405.37949999999995 144.113 L398.1785 144.113 Z M398.1785 138.736 L404.3155 138.736 L406.21549999999996 136.855 L406.21549999999996 134.936 L405.05649999999997 133.777 L398.1785 133.777 Z M428.7125 155 L424.7985 151.086 L424.7985 132.314 L428.7125 128.4 L441.32849999999996 128.4 L445.2425 132.314 L445.2425 151.086 L441.32849999999996 155 Z M431.3345 149.623 L438.7065 149.623 L439.8655 148.464 L439.8655 134.936 L438.7065 133.777 L431.3345 133.777 L430.1755 134.936 L430.1755 148.464 Z M430.0045 152.492 L440.0745 152.492 L442.8105 149.756 L442.8105 133.492 L440.0745 130.756 L430.0045 130.756 L427.26849999999996 133.492 L427.26849999999996 149.756 Z M430.1945 151.96 L427.8005 149.604 L427.8005 133.644 L430.1945 131.288 L439.8845 131.288 L442.2785 133.644 L442.2785 149.604 L439.8845 151.96 Z M457.8025 155 L457.8025 128.4 L474.1995 128.4 L478.1135 132.314 L478.1135 140.56 L475.7955 142.688 L478.1135 145.215 L478.1135 155 L472.73650000000004 155 L472.73650000000004 147.115 L470.8365 145.215 L463.1795 145.215 L463.1795 155 Z M460.2345 152.644 L460.7665 152.644 L460.7665 142.65 L471.8625 142.65 L475.2255 146.298 L475.2255 152.644 L475.7575 152.644 L475.7575 146.14600000000002 L472.31850000000003 142.38400000000001 L475.6055 139.629 L475.6055 133.511 L472.8695 130.775 L460.2345 130.775 Z M463.1795 139.838 L471.5775 139.838 L472.73650000000004 138.66 L472.73650000000004 134.936 L471.5775 133.777 L463.1795 133.777 Z M460.7665 142.118 L460.7665 131.30700000000002 L472.6795 131.30700000000002 L475.0735 133.663 L475.0735 139.458 L471.8625 142.118 Z M493.0675 152.682 L493.5995 152.682 L493.5995 131.459 L498.5395 131.459 L505.5125 152.587 L511.38349999999997 152.587 L511.38349999999997 130.756 L510.8515 130.756 L510.8515 152.017 L505.9305 152.017 L498.9575 130.851 L493.0675 130.851 Z M490.6735 155 L490.6735 128.4 L500.9905 128.4 L507.5645 149.547 L508.38149999999996 149.547 L508.38149999999996 128.4 L513.7585 128.4 L513.7585 155 L503.44149999999996 155 L496.8295 133.796 L496.0505 133.796 L496.0505 155 Z M526.3185 155 L526.3185 128.4 L543.6085 128.4 L543.6085 133.777 L531.6955 133.777 L531.6955 138.888 L542.2975 138.888 L542.2975 144.265 L531.6955 144.265 L531.6955 149.623 L543.6085 149.623 L543.6085 155 Z M528.8075 152.492 L541.5185 152.492 L541.5185 151.96 L529.3395 151.96 L529.3395 141.833 L540.1885 141.833 L540.1885 141.301 L529.3395 141.301 L529.3395 131.288 L541.5185 131.288 L541.5185 130.756 L528.8075 130.756 Z"/>

  <!-- Divider -->
  <line x1="214" y1="165" x2="534" y2="165" stroke="#3dd9cc" stroke-width="0.8"/>

  <!-- PILOT UTILITY SUITE subtitle (paths) -->
  <path fill="#6bbfcc" d="M263.059 192 L263.059 182.9 L268.4605 182.9 L269.7995 184.239 L269.7995 187.8205 L268.33700000000005 189.283 L264.8985 189.283 L264.8985 192 Z M263.55300000000005 191.558 L264.3915 191.558 L264.3915 188.763 L268.11600000000004 188.763 L269.31850000000003 187.554 L269.31850000000003 184.473 L268.233 183.3875 L263.55300000000005 183.3875 Z M264.8985 187.4435 L267.44 187.4435 L267.96650000000005 186.9235 L267.96650000000005 185.136 L267.57000000000005 184.7395 L264.8985 184.7395 Z M264.3915 187.931 L264.3915 184.226 L267.83000000000004 184.226 L268.48650000000004 184.876 L268.48650000000004 187.1575 L267.7065 187.931 Z M275.17100000000005 192 L275.17100000000005 190.1605 L276.95200000000006 190.1605 L276.95200000000006 184.7395 L275.17100000000005 184.7395 L275.17100000000005 182.9 L280.55950000000007 182.9 L280.55950000000007 184.7395 L278.785 184.7395 L278.785 190.1605 L280.55950000000007 190.1605 L280.55950000000007 192 Z M275.67150000000004 191.4995 L280.06550000000004 191.4995 L280.06550000000004 190.6675 L278.25200000000007 190.6675 L278.25200000000007 184.226 L280.06550000000004 184.226 L280.06550000000004 183.3875 L275.67150000000004 183.3875 L275.67150000000004 184.226 L277.4200000000001 184.226 L277.4200000000001 190.6675 L275.67150000000004 190.6675 Z M286.1195000000001 192 L286.1195000000001 182.9 L287.95900000000006 182.9 L287.95900000000006 190.1605 L291.91100000000006 190.1605 L291.91100000000006 192 Z M286.6265000000001 191.506 L291.4170000000001 191.506 L291.4170000000001 190.6675 L287.4585000000001 190.6675 L287.4585000000001 183.3875 L286.6265000000001 183.3875 Z M298.48500000000007 192 L297.1460000000001 190.661 L297.1460000000001 184.239 L298.48500000000007 182.9 L302.80100000000004 182.9 L304.14000000000004 184.239 L304.14000000000004 190.661 L302.80100000000004 192 Z M299.38200000000006 190.1605 L301.90400000000005 190.1605 L302.30050000000006 189.764 L302.30050000000006 185.136 L301.90400000000005 184.7395 L299.38200000000006 184.7395 L298.98550000000006 185.136 L298.98550000000006 189.764 Z M298.74500000000006 191.48 L302.54750000000007 191.48 L303.63950000000006 190.3945 L303.63950000000006 184.473 L302.54750000000007 183.3875 L298.74500000000006 183.3875 L297.6595000000001 184.473 L297.6595000000001 190.3945 Z M299.15450000000004 190.648 L298.4915000000001 189.9915 L298.4915000000001 184.876 L299.15450000000004 184.226 L302.14450000000005 184.226 L302.80100000000004 184.876 L302.80100000000004 189.9915 L302.14450000000005 190.648 Z M311.63050000000004 192 L311.63050000000004 184.7395 L309.37500000000006 184.7395 L309.37500000000006 182.9 L315.71900000000005 182.9 L315.71900000000005 184.7395 L313.46350000000007 184.7395 L313.46350000000007 192 Z M312.13100000000003 191.5125 L312.963 191.5125 L312.963 184.226 L315.23800000000006 184.226 L315.23800000000006 183.3875 L309.85600000000005 183.3875 L309.85600000000005 184.226 L312.13100000000003 184.226 Z M337.44300000000004 192 L336.10400000000004 190.661 L336.10400000000004 182.9 L337.94350000000003 182.9 L337.94350000000003 189.764 L338.34000000000003 190.1605 L341.00500000000005 190.1605 L341.40150000000006 189.764 L341.40150000000006 182.9 L343.24100000000004 182.9 L343.24100000000004 190.661 L341.90200000000004 192 Z M337.6965 191.4995 L341.65500000000003 191.4995 L342.74050000000005 190.4205 L342.74050000000005 183.3875 L341.90850000000006 183.3875 L341.90850000000006 190.0175 L341.24550000000005 190.661 L338.10600000000005 190.661 L337.44300000000004 190.0175 L337.44300000000004 183.3875 L336.60450000000003 183.3875 L336.60450000000003 190.4205 Z M350.73150000000004 192 L350.73150000000004 184.7395 L348.47600000000006 184.7395 L348.47600000000006 182.9 L354.82000000000005 182.9 L354.82000000000005 184.7395 L352.56450000000007 184.7395 L352.56450000000007 192 Z M351.232 191.5125 L352.064 191.5125 L352.064 184.226 L354.33900000000006 184.226 L354.33900000000006 183.3875 L348.95700000000005 183.3875 L348.95700000000005 184.226 L351.232 184.226 Z M360.05500000000006 192 L360.05500000000006 190.1605 L361.83600000000007 190.1605 L361.83600000000007 184.7395 L360.05500000000006 184.7395 L360.05500000000006 182.9 L365.4435000000001 182.9 L365.4435000000001 184.7395 L363.66900000000004 184.7395 L363.66900000000004 190.1605 L365.4435000000001 190.1605 L365.4435000000001 192 Z M360.55550000000005 191.4995 L364.94950000000006 191.4995 L364.94950000000006 190.6675 L363.1360000000001 190.6675 L363.1360000000001 184.226 L364.94950000000006 184.226 L364.94950000000006 183.3875 L360.55550000000005 183.3875 L360.55550000000005 184.226 L362.3040000000001 184.226 L362.3040000000001 190.6675 L360.55550000000005 190.6675 Z M371.0035000000001 192 L371.0035000000001 182.9 L372.8430000000001 182.9 L372.8430000000001 190.1605 L376.7950000000001 190.1605 L376.7950000000001 192 Z M371.5105000000001 191.506 L376.3010000000001 191.506 L376.3010000000001 190.6675 L372.3425000000001 190.6675 L372.3425000000001 183.3875 L371.5105000000001 183.3875 Z M382.0300000000001 192 L382.0300000000001 190.1605 L383.8110000000001 190.1605 L383.8110000000001 184.7395 L382.0300000000001 184.7395 L382.0300000000001 182.9 L387.4185000000001 182.9 L387.4185000000001 184.7395 L385.64400000000006 184.7395 L385.64400000000006 190.1605 L387.4185000000001 190.1605 L387.4185000000001 192 Z M382.5305000000001 191.4995 L386.9245000000001 191.4995 L386.9245000000001 190.6675 L385.1110000000001 190.6675 L385.1110000000001 184.226 L386.9245000000001 184.226 L386.9245000000001 183.3875 L382.5305000000001 183.3875 L382.5305000000001 184.226 L384.2790000000001 184.226 L384.2790000000001 190.6675 L382.5305000000001 190.6675 Z M394.9090000000001 192 L394.9090000000001 184.7395 L392.6535000000001 184.7395 L392.6535000000001 182.9 L398.9975000000001 182.9 L398.9975000000001 184.7395 L396.74200000000013 184.7395 L396.74200000000013 192 Z M395.4095000000001 191.5125 L396.2415000000001 191.5125 L396.2415000000001 184.226 L398.5165000000001 184.226 L398.5165000000001 183.3875 L393.1345000000001 183.3875 L393.1345000000001 184.226 L395.4095000000001 184.226 Z M406.76750000000015 192 L406.76750000000015 189.1205 L404.16750000000013 186.6375 L404.16750000000013 182.9 L406.0070000000001 182.9 L406.0070000000001 185.9745 L407.74900000000014 187.619 L407.6255000000001 187.619 L409.37400000000014 185.9745 L409.37400000000014 182.9 L411.2135000000001 182.9 L411.2135000000001 186.6375 L408.60700000000014 189.1205 L408.60700000000014 192 Z M407.26800000000014 191.5125 L408.10650000000015 191.5125 L408.10650000000015 188.9255 L410.71300000000014 186.4555 L410.71300000000014 183.3875 L409.8745000000001 183.3875 L409.8745000000001 186.176 L407.70350000000013 188.2235 L407.6775000000001 188.2235 L405.5000000000001 186.176 L405.5000000000001 183.3875 L404.6680000000001 183.3875 L404.6680000000001 186.4555 L407.26800000000014 188.9255 Z M433.1325000000001 192 L431.7935000000001 190.661 L431.7935000000001 189.023 L433.6330000000001 189.023 L433.6330000000001 189.764 L434.0295000000001 190.1605 L436.5255000000001 190.1605 L436.9220000000001 189.764 L436.9220000000001 188.763 L436.5255000000001 188.3665 L433.1715000000001 188.3665 L431.8325000000001 187.0275 L431.8325000000001 184.239 L433.1715000000001 182.9 L437.2990000000001 182.9 L438.6380000000001 184.239 L438.6380000000001 185.877 L436.7985000000001 185.877 L436.7985000000001 185.136 L436.4020000000001 184.7395 L434.0685000000001 184.7395 L433.6655000000001 185.136 L433.6655000000001 186.1305 L434.0685000000001 186.527 L437.4225000000001 186.527 L438.7615000000001 187.866 L438.7615000000001 190.661 L437.4225000000001 192 Z M433.3665000000001 191.4995 L437.1560000000001 191.4995 L438.2415000000001 190.414 L438.2415000000001 188.048 L437.2210000000001 187.021 L433.8345000000001 187.021 L433.1715000000001 186.3645 L433.1715000000001 184.889 L433.8280000000001 184.239 L436.6685000000001 184.239 L437.2990000000001 184.8565 L437.2990000000001 185.4155 L438.1310000000001 185.4155 L438.1310000000001 184.4535 L437.0780000000001 183.4005 L433.4185000000001 183.4005 L432.3330000000001 184.486 L432.3330000000001 186.761 L433.4315000000001 187.866 L436.8115000000001 187.866 L437.40300000000013 188.438 L437.40300000000013 190.011 L436.7465000000001 190.6675 L433.7760000000001 190.6675 L433.1520000000001 190.0435 L433.1520000000001 189.4845 L432.3135000000001 189.4845 L432.3135000000001 190.4465 Z M445.59550000000013 192 L444.25650000000013 190.661 L444.25650000000013 182.9 L446.0960000000001 182.9 L446.0960000000001 189.764 L446.4925000000001 190.1605 L449.15750000000014 190.1605 L449.55400000000014 189.764 L449.55400000000014 182.9 L451.39350000000013 182.9 L451.39350000000013 190.661 L450.05450000000013 192 Z M445.8490000000001 191.4995 L449.8075000000001 191.4995 L450.89300000000014 190.4205 L450.89300000000014 183.3875 L450.06100000000015 183.3875 L450.06100000000015 190.0175 L449.39800000000014 190.661 L446.25850000000014 190.661 L445.59550000000013 190.0175 L445.59550000000013 183.3875 L444.7570000000001 183.3875 L444.7570000000001 190.4205 Z M456.88850000000014 192 L456.88850000000014 190.1605 L458.66950000000014 190.1605 L458.66950000000014 184.7395 L456.88850000000014 184.7395 L456.88850000000014 182.9 L462.27700000000016 182.9 L462.27700000000016 184.7395 L460.5025000000001 184.7395 L460.5025000000001 190.1605 L462.27700000000016 190.1605 L462.27700000000016 192 Z M457.3890000000001 191.4995 L461.78300000000013 191.4995 L461.78300000000013 190.6675 L459.96950000000015 190.6675 L459.96950000000015 184.226 L461.78300000000013 184.226 L461.78300000000013 183.3875 L457.3890000000001 183.3875 L457.3890000000001 184.226 L459.13750000000016 184.226 L459.13750000000016 190.6675 L457.3890000000001 190.6675 Z M469.76750000000015 192 L469.76750000000015 184.7395 L467.51200000000017 184.7395 L467.51200000000017 182.9 L473.85600000000017 182.9 L473.85600000000017 184.7395 L471.6005000000002 184.7395 L471.6005000000002 192 Z M470.26800000000014 191.5125 L471.10000000000014 191.5125 L471.10000000000014 184.226 L473.37500000000017 184.226 L473.37500000000017 183.3875 L467.99300000000017 183.3875 L467.99300000000017 184.226 L470.26800000000014 184.226 Z M479.0910000000002 192 L479.0910000000002 182.9 L485.0060000000002 182.9 L485.0060000000002 184.7395 L480.93050000000017 184.7395 L480.93050000000017 186.488 L484.5575000000002 186.488 L484.5575000000002 188.3275 L480.93050000000017 188.3275 L480.93050000000017 190.1605 L485.0060000000002 190.1605 L485.0060000000002 192 Z M479.6045000000002 191.48 L484.5640000000002 191.48 L484.5640000000002 190.648 L480.44300000000015 190.648 L480.44300000000015 187.8205 L484.10900000000015 187.8205 L484.10900000000015 186.9885 L480.44300000000015 186.9885 L480.44300000000015 184.226 L484.5640000000002 184.226 L484.5640000000002 183.3875 L479.6045000000002 183.3875 Z"/>
</svg>