<svg id="icon-qibla" viewBox="0 0 64 64" width="64" height="64" xmlns="http://www.w3.org/2000/svg">
            <rect width="64" height="64" fill="#0f1419"></rect>
            
            <circle cx="32" cy="32" r="26" fill="none" stroke="#3FE0C5" stroke-width="2"></circle>
            
            <circle cx="32" cy="32" r="10" fill="none" stroke="#3FE0C5" stroke-width="1" opacity="0.28"></circle>
            
            <line x1="32" y1="6" x2="32" y2="16" stroke="#3FE0C5" stroke-width="2.5"></line>
            <line x1="58" y1="32" x2="48" y2="32" stroke="#3FE0C5" stroke-width="2.5"></line>
            <line x1="32" y1="58" x2="32" y2="48" stroke="#3FE0C5" stroke-width="2.5"></line>
            <line x1="6" y1="32" x2="16" y2="32" stroke="#3FE0C5" stroke-width="2.5"></line>
            
            <line x1="50.4" y1="13.6" x2="46.3" y2="17.7" stroke="#3FE0C5" stroke-width="1.5" opacity="0.42"></line>
            <line x1="50.4" y1="50.4" x2="46.3" y2="46.3" stroke="#3FE0C5" stroke-width="1.5" opacity="0.42"></line>
            <line x1="13.6" y1="50.4" x2="17.7" y2="46.3" stroke="#3FE0C5" stroke-width="1.5" opacity="0.42"></line>
            <line x1="13.6" y1="13.6" x2="17.7" y2="17.7" stroke="#3FE0C5" stroke-width="1.5" opacity="0.42"></line>
            
            
            <polygon points="32,32 28.5,38 32,13 35.5,38" fill="#3FE0C5" transform="rotate(30,32,32)"></polygon>
            
            <polygon points="32,32 29,27 32,51 35,27" fill="#3FE0C5" opacity="0.22" transform="rotate(30,32,32)"></polygon>
            
            <circle cx="32" cy="32" r="3.5" fill="#0f1419" stroke="#3FE0C5" stroke-width="2"></circle>
          </svg>