<svg xmlns="http://www.w3.org/2000/svg" width="512" height="512" viewBox="0 0 512 512">
  <defs>
    <linearGradient id="bg" x1="0" y1="0" x2="1" y2="1">
      <stop offset="0%" stop-color="#0a1020"/>
      <stop offset="100%" stop-color="#2e3a66"/>
    </linearGradient>
    <pattern id="grid" width="32" height="32" patternUnits="userSpaceOnUse">
      <path d="M 32 0 L 0 0 0 32" fill="none" stroke="rgba(255,255,255,0.18)" stroke-width="1"/>
    </pattern>
  </defs>
  <rect width="512" height="512" fill="url(#bg)"/>
  <rect width="512" height="512" fill="url(#grid)"/>
  <g transform="translate(256 256) scale(0.65) translate(-256 -256)">
    <polyline points="50,334 50,86 86,50 426,50 462,86 462,426 426,462 178,462" fill="none" stroke="#3FE0C5" stroke-width="10" stroke-linejoin="miter"/>
    <polyline points="66,330 66,102 102,66 410,66 446,102 446,410 410,446 190,446" fill="none" stroke="#3FE0C5" stroke-width="6" stroke-linejoin="miter"/>
    <g font-family="Tourney" font-weight="500" text-anchor="middle" fill="#ffffff">
      <text x="256" y="218" font-size="105"><tspan fill="#3FE0C5">A</tspan>ir</text>
      <line x1="133" y1="271" x2="379" y2="271" stroke="#3FE0C5" stroke-width="8" stroke-linecap="square"/>
      <text x="256" y="371" font-size="105"><tspan fill="#3FE0C5">B</tspan>orne</text>
    </g>
  </g>
</svg>
